<svg id="Layer_1" data-name="Layer 1" xmlns="http://www.w3.org/2000/svg" viewBox="0 0 512 512"><title>alarm-clock</title><path d="M0,256C0,114.61,114.61,0,256,0S512,114.63,512,256,397.38,512,256,512,0,397.39,0,256Z" fill="#0086cd"/><path d="M256,176A97.95,97.95,0,1,1,158.06,274,98.06,98.06,0,0,1,256,176m0-22.61A120.55,120.55,0,1,0,376.55,274,120.55,120.55,0,0,0,256,153.44Z" fill="#fff"/><path d="M261.46,185.42a5,5,0,0,1-5,5h-.88a5,5,0,0,1-5-5V161.71a5,5,0,0,1,5-5h.88a5,5,0,0,1,5,5Z" fill="#fff"/><path d="M261.46,382.42a5,5,0,0,1-5,5h-.88a5,5,0,0,1-5-5V362.55a5,5,0,0,1,5-5h.88a5,5,0,0,1,5,5Z" fill="#fff"/><path d="M344.57,279.46a5,5,0,0,1-5-5v-.88a5,5,0,0,1,5-5h16.81a5,5,0,0,1,5,5v.88a5,5,0,0,1-5,5Z" fill="#fff"/><path d="M148.63,279.46a5,5,0,0,1-5-5v-.88a5,5,0,0,1,5-5h18.81a5,5,0,0,1,5,5v.88a5,5,0,0,1-5,5Z" fill="#fff"/><circle cx="256" cy="273.99" r="14.44" fill="#fff"/><path d="M259.66,281.35a5.05,5.05,0,0,1-7.1,0l-35.91-35.91a5.05,5.05,0,0,1,0-7.1l3.56-3.56a5,5,0,0,1,7.1,0l35.9,35.91a5,5,0,0,1,0,7.11Z" fill="#fff"/><path d="M249,277.79a5,5,0,0,1,0-7.1l53.17-53.17a5,5,0,0,1,7.1,0l3.55,3.55a5,5,0,0,1,0,7.11l-53.17,53.17a5,5,0,0,1-7.1,0Z" fill="#fff"/><path d="M199.07,395.3a5,5,0,0,1-6.75,2.22l-26.16-13.2a5,5,0,0,1-2.22-6.75l11.7-23.17a5,5,0,0,1,6.75-2.22l26.16,13.2a5,5,0,0,1,2.22,6.75Z" fill="#fff"/><path d="M312.94,395.3a5.05,5.05,0,0,0,6.75,2.22l26.15-13.2a5,5,0,0,0,2.22-6.75L336.37,354.4a5,5,0,0,0-6.75-2.22l-26.16,13.2a5,5,0,0,0-2.23,6.75Z" fill="#fff"/><path d="M232.53,140.44a58.53,58.53,0,1,0-95.18,68A136,136,0,0,1,232.53,140.44Z" fill="#fff"/><path d="M374.65,208.41a58.53,58.53,0,1,0-95.18-68A136,136,0,0,1,374.65,208.41Z" fill="#fff"/></svg>