<svg id="Layer_1" data-name="Layer 1" xmlns="http://www.w3.org/2000/svg" viewBox="0 0 512 512"><title>arrow-location-flat</title><path d="M.37,256C.37,114.82,114.82.35,256,.35S511.64,114.83,511.63,256,397.18,511.65,256,511.65.35,397.18.37,256Z" fill="#2b77c1"/><path d="M132.84,216.31h0l221.35-81.24a43.94,43.94,0,0,1,13.41-2.23c4.1,0,7.82,1.49,9.68,4.47,1.5,2.24,1.87,5.23,1.87,8.95s-1.13,7.08-2.62,11.93c-24.58,67.82-52.9,158-81.59,221l-7.46-1.49C283,349,277.79,316.92,275.56,289a50.56,50.56,0,0,0-15.27-36.89c-9.69-9.69-22.36-15.66-36.9-15.66l-89.06-11.92h-.74l-.75-7.45Z" fill="#fff" fill-rule="evenodd"/></svg>